#Comment line ignore any data following # character 
#Hierarchical Translation and Rotation (.htr) file 
[Header]	
#Header keywords are followed by a single value 
FileType HTR		#Single word string
DataType HTRS		#Translation followed by rotation and scale data
FileVersion 1		#integer
NumSegments 84		#integer
NumFrames 2		#integer
DataFrameRate 30		#integer, data frame rate in this file
EulerRotationOrder ZYX
CalibrationUnits mm
RotationUnits Degrees
GlobalAxisofGravity Y
BoneLengthAxis Y
ScaleFactor 1.00
[SegmentNames&Hierarchy]
#CHILD	PARENT
MASTER GLOBAL
root MASTER
chest root
L_mid_tent01 root
R_mid_tent01 root
spine01 root
Bip01_Neck chest
L_humerus chest
R_humerus chest
weapon_bone chest
Bip01_Head Bip01_Neck
eye_left_bone Bip01_Head
eye_right_bone Bip01_Head
L_forearm L_humerus
L_front_hand L_forearm
L_weapon_bone L_forearm
L_front_hand01_01 L_front_hand
L_front_hand02_01 L_front_hand
L_front_hand03_01 L_front_hand
L_front_hand01_02 L_front_hand01_01
L_front_hand02_02 L_front_hand02_01
L_front_hand03_02 L_front_hand03_01
R_forearm R_humerus
R_front_hand R_forearm
R_weapon_bone R_forearm
R_front_hand01_01 R_front_hand
R_front_hand02_01 R_front_hand
R_front_hand03_01 R_front_hand
R_front_hand01_02 R_front_hand01_01
R_front_hand02_02 R_front_hand02_01
R_front_hand03_02 R_front_hand03_01
null_rope01_connect L_mid_tent01
Rope1_Seg01 null_rope01_connect
Rope1_Seg02 Rope1_Seg01
Rope1_Seg03 Rope1_Seg02
Rope1_Seg04 Rope1_Seg03
Rope1_Seg05 Rope1_Seg04
Rope1_Seg06 Rope1_Seg05
Rope1_Seg07 Rope1_Seg06
Rope1_Seg09 Rope1_Seg07
L_mid_hand01 Rope1_Seg09
L_mid_hand02 Rope1_Seg09
L_mid_hand03 Rope1_Seg09
null_rope02_connect R_mid_tent01
Rope2_Seg01 null_rope02_connect
Rope2_Seg02 Rope2_Seg01
Rope2_Seg03 Rope2_Seg02
Rope2_Seg04 Rope2_Seg03
Rope2_Seg05 Rope2_Seg04
Rope2_Seg06 Rope2_Seg05
Rope2_Seg07 Rope2_Seg06
Rope2_Seg09 Rope2_Seg07
R_mid_hand01 Rope2_Seg09
R_mid_hand02 Rope2_Seg09
R_mid_hand03 Rope2_Seg09
spine02 spine01
spine03 spine02
pelvis spine03
null_rope03_connect pelvis
null_rope04_connect pelvis
Rope3_Seg01 null_rope03_connect
Rope3_Seg02 Rope3_Seg01
Rope3_Seg03 Rope3_Seg02
Rope3_Seg04 Rope3_Seg03
Rope3_Seg05 Rope3_Seg04
Rope3_Seg06 Rope3_Seg05
Rope3_Seg07 Rope3_Seg06
Rope3_Seg08 Rope3_Seg07
Rope3_Seg09 Rope3_Seg08
R_rear_hand01 Rope3_Seg09
R_rear_hand02 Rope3_Seg09
R_rear_hand03 Rope3_Seg09
Rope4_Seg01 null_rope04_connect
Rope4_Seg02 Rope4_Seg01
Rope4_Seg03 Rope4_Seg02
Rope4_Seg04 Rope4_Seg03
Rope4_Seg05 Rope4_Seg04
Rope4_Seg06 Rope4_Seg05
Rope4_Seg07 Rope4_Seg06
Rope4_Seg08 Rope4_Seg07
Rope4_Seg09 Rope4_Seg08
L_rear_hand01 Rope4_Seg09
L_rear_hand02 Rope4_Seg09
L_rear_hand03 Rope4_Seg09
[BasePosition]
#SegmentName Tx, Ty, Tz, Rx, Ry, Rz, BoneLength
MASTER 0.000000 0.000000 0.000000 -90.000000 0.000000 0.000000 10.000000 
root 0.000000 0.000000 0.000000 0.000000 0.000000 0.000000 10.000000 
chest 0.000000 0.000000 0.000000 0.000000 0.000000 0.000000 10.000000 
L_mid_tent01 0.000000 0.000000 0.000000 0.000000 0.000000 0.000000 10.000000 
R_mid_tent01 0.000000 0.000000 0.000000 0.000000 0.000000 0.000000 10.000000 
spine01 0.000000 0.000000 0.000000 0.000000 0.000000 0.000000 10.000000 
Bip01_Neck 0.000000 0.000000 0.000000 0.000000 0.000000 0.000000 10.000000 
L_humerus 0.000000 0.000000 0.000000 0.000000 0.000000 0.000000 10.000000 
R_humerus 0.000000 0.000000 0.000000 0.000000 0.000000 0.000000 10.000000 
weapon_bone 0.000000 0.000000 0.000000 0.000000 0.000000 0.000000 10.000000 
Bip01_Head 0.000000 0.000000 0.000000 0.000000 0.000000 0.000000 10.000000 
eye_left_bone 0.000000 0.000000 0.000000 0.000000 0.000000 0.000000 10.000000 
eye_right_bone 0.000000 0.000000 0.000000 0.000000 0.000000 0.000000 10.000000 
L_forearm 0.000000 0.000000 0.000000 0.000000 0.000000 0.000000 10.000000 
L_front_hand 0.000000 0.000000 0.000000 0.000000 0.000000 0.000000 10.000000 
L_weapon_bone 0.000000 0.000000 0.000000 0.000000 0.000000 0.000000 10.000000 
L_front_hand01_01 0.000000 0.000000 0.000000 0.000000 0.000000 0.000000 10.000000 
L_front_hand02_01 0.000000 0.000000 0.000000 0.000000 0.000000 0.000000 10.000000 
L_front_hand03_01 0.000000 0.000000 0.000000 0.000000 0.000000 0.000000 10.000000 
L_front_hand01_02 0.000000 0.000000 0.000000 0.000000 0.000000 0.000000 10.000000 
L_front_hand02_02 0.000000 0.000000 0.000000 0.000000 0.000000 0.000000 10.000000 
L_front_hand03_02 0.000000 0.000000 0.000000 0.000000 0.000000 0.000000 10.000000 
R_forearm 0.000000 0.000000 0.000000 0.000000 0.000000 0.000000 10.000000 
R_front_hand 0.000000 0.000000 0.000000 0.000000 0.000000 0.000000 10.000000 
R_weapon_bone 0.000000 0.000000 0.000000 0.000000 0.000000 0.000000 10.000000 
R_front_hand01_01 0.000000 0.000000 0.000000 0.000000 0.000000 0.000000 10.000000 
R_front_hand02_01 0.000000 0.000000 0.000000 0.000000 0.000000 0.000000 10.000000 
R_front_hand03_01 0.000000 0.000000 0.000000 0.000000 0.000000 0.000000 10.000000 
R_front_hand01_02 0.000000 0.000000 0.000000 0.000000 0.000000 0.000000 10.000000 
R_front_hand02_02 0.000000 0.000000 0.000000 0.000000 0.000000 0.000000 10.000000 
R_front_hand03_02 0.000000 0.000000 0.000000 0.000000 0.000000 0.000000 10.000000 
null_rope01_connect 0.000000 0.000000 0.000000 0.000000 0.000000 0.000000 10.000000 
Rope1_Seg01 0.000000 0.000000 0.000000 0.000000 0.000000 0.000000 10.000000 
Rope1_Seg02 0.000000 0.000000 0.000000 0.000000 0.000000 0.000000 10.000000 
Rope1_Seg03 0.000000 0.000000 0.000000 0.000000 0.000000 0.000000 10.000000 
Rope1_Seg04 0.000000 0.000000 0.000000 0.000000 0.000000 0.000000 10.000000 
Rope1_Seg05 0.000000 0.000000 0.000000 0.000000 0.000000 0.000000 10.000000 
Rope1_Seg06 0.000000 0.000000 0.000000 0.000000 0.000000 0.000000 10.000000 
Rope1_Seg07 0.000000 0.000000 0.000000 0.000000 0.000000 0.000000 10.000000 
Rope1_Seg09 0.000000 0.000000 0.000000 0.000000 0.000000 0.000000 10.000000 
L_mid_hand01 0.000000 0.000000 0.000000 0.000000 0.000000 0.000000 10.000000 
L_mid_hand02 0.000000 0.000000 0.000000 0.000000 0.000000 0.000000 10.000000 
L_mid_hand03 0.000000 0.000000 0.000000 0.000000 0.000000 0.000000 10.000000 
null_rope02_connect 0.000000 0.000000 0.000000 0.000000 0.000000 0.000000 10.000000 
Rope2_Seg01 0.000000 0.000000 0.000000 0.000000 0.000000 0.000000 10.000000 
Rope2_Seg02 0.000000 0.000000 0.000000 0.000000 0.000000 0.000000 10.000000 
Rope2_Seg03 0.000000 0.000000 0.000000 0.000000 0.000000 0.000000 10.000000 
Rope2_Seg04 0.000000 0.000000 0.000000 0.000000 0.000000 0.000000 10.000000 
Rope2_Seg05 0.000000 0.000000 0.000000 0.000000 0.000000 0.000000 10.000000 
Rope2_Seg06 0.000000 0.000000 0.000000 0.000000 0.000000 0.000000 10.000000 
Rope2_Seg07 0.000000 0.000000 0.000000 0.000000 0.000000 0.000000 10.000000 
Rope2_Seg09 0.000000 0.000000 0.000000 0.000000 0.000000 0.000000 10.000000 
R_mid_hand01 0.000000 0.000000 0.000000 0.000000 0.000000 0.000000 10.000000 
R_mid_hand02 0.000000 0.000000 0.000000 0.000000 0.000000 0.000000 10.000000 
R_mid_hand03 0.000000 0.000000 0.000000 0.000000 0.000000 0.000000 10.000000 
spine02 0.000000 0.000000 0.000000 0.000000 0.000000 0.000000 10.000000 
spine03 0.000000 0.000000 0.000000 0.000000 0.000000 0.000000 10.000000 
pelvis 0.000000 0.000000 0.000000 0.000000 0.000000 0.000000 10.000000 
null_rope03_connect 0.000000 0.000000 0.000000 0.000000 0.000000 0.000000 10.000000 
null_rope04_connect 0.000000 0.000000 0.000000 0.000000 0.000000 0.000000 10.000000 
Rope3_Seg01 0.000000 0.000000 0.000000 0.000000 0.000000 0.000000 10.000000 
Rope3_Seg02 0.000000 0.000000 0.000000 0.000000 0.000000 0.000000 10.000000 
Rope3_Seg03 0.000000 0.000000 0.000000 0.000000 0.000000 0.000000 10.000000 
Rope3_Seg04 0.000000 0.000000 0.000000 0.000000 0.000000 0.000000 10.000000 
Rope3_Seg05 0.000000 0.000000 0.000000 0.000000 0.000000 0.000000 10.000000 
Rope3_Seg06 0.000000 0.000000 0.000000 0.000000 0.000000 0.000000 10.000000 
Rope3_Seg07 0.000000 0.000000 0.000000 0.000000 0.000000 0.000000 10.000000 
Rope3_Seg08 0.000000 0.000000 0.000000 0.000000 0.000000 0.000000 10.000000 
Rope3_Seg09 0.000000 0.000000 0.000000 0.000000 0.000000 0.000000 10.000000 
R_rear_hand01 0.000000 0.000000 0.000000 0.000000 0.000000 0.000000 10.000000 
R_rear_hand02 0.000000 0.000000 0.000000 0.000000 0.000000 0.000000 10.000000 
R_rear_hand03 0.000000 0.000000 0.000000 0.000000 0.000000 0.000000 10.000000 
Rope4_Seg01 0.000000 0.000000 0.000000 0.000000 0.000000 0.000000 10.000000 
Rope4_Seg02 0.000000 0.000000 0.000000 0.000000 0.000000 0.000000 10.000000 
Rope4_Seg03 0.000000 0.000000 0.000000 0.000000 0.000000 0.000000 10.000000 
Rope4_Seg04 0.000000 0.000000 0.000000 0.000000 0.000000 0.000000 10.000000 
Rope4_Seg05 0.000000 0.000000 0.000000 0.000000 0.000000 0.000000 10.000000 
Rope4_Seg06 0.000000 0.000000 0.000000 0.000000 0.000000 0.000000 10.000000 
Rope4_Seg07 0.000000 0.000000 0.000000 0.000000 0.000000 0.000000 10.000000 
Rope4_Seg08 0.000000 0.000000 0.000000 0.000000 0.000000 0.000000 10.000000 
Rope4_Seg09 0.000000 0.000000 0.000000 0.000000 0.000000 0.000000 10.000000 
L_rear_hand01 0.000000 0.000000 0.000000 0.000000 0.000000 0.000000 10.000000 
L_rear_hand02 0.000000 0.000000 0.000000 0.000000 0.000000 0.000000 10.000000 
L_rear_hand03 0.000000 0.000000 0.000000 0.000000 0.000000 0.000000 10.000000 
#Beginning of Data. Separated by tabs
#Fr	Tx	Ty	Tz	Rx	Ry	Rz	SF
[MASTER]
28 0.000936 -8724.426758 -33.773777 0.001660 0.001660 0.001660 8724.493164
29 0.000962 -8965.454102 1.267895 0.001660 0.001660 0.001660 8965.454102
[root]
28 -18.069803 -8.901977 1456.586426 -93.236214 -15.314731 -88.831314 1456.725830
29 -16.502308 9.359672 1448.320068 -91.728912 -11.584508 -89.471626 1448.444336
[chest]
28 -84.512650 -34.090519 0.000000 -2.215616 -0.031566 169.492477 91.129311
29 -84.512650 -34.090519 0.000000 -2.170494 -0.006436 168.239609 91.129311
[L_mid_tent01]
28 27.299192 22.179106 -249.918701 -19.482084 16.798447 21.380617 252.381699
29 27.299194 22.179106 -249.918701 -20.661390 12.026063 12.983052 252.381699
[R_mid_tent01]
28 23.228794 24.509907 226.238495 -168.065918 -23.025965 31.427319 228.744751
29 23.228794 24.509907 226.238495 -165.192215 -17.956051 24.056808 228.744751
[spine01]
28 -0.361383 -0.195265 0.000000 0.001952 0.001304 22.520636 0.410763
29 -0.361383 -0.195265 0.000000 0.001947 0.001312 22.051847 0.410763
[Bip01_Neck]
28 165.484543 71.581718 0.000119 176.643677 -1.657967 43.431911 180.302734
29 165.484543 71.581718 0.000119 176.643677 -1.657967 43.431911 180.302734
[L_humerus]
28 -13.983130 -135.272980 -120.471481 3.995648 79.973549 94.509254 181.680161
29 -13.983130 -135.272980 -120.471481 -5.480123 68.873459 84.573517 181.680161
[R_humerus]
28 -13.983309 -135.273102 125.287651 42.914555 -81.347374 52.568672 184.909012
29 -13.983309 -135.273102 125.287651 27.897182 -69.888847 67.752289 184.909012
[weapon_bone]
28 235.964890 -300.705902 0.000000 0.000000 -89.951546 -128.212341 382.234833
29 235.964890 -300.705902 0.000000 0.000000 -89.951546 -128.212341 382.234833
[Bip01_Head]
28 213.345490 185.990753 8.225631 9.067745 3.281933 -43.888077 283.154572
29 213.347778 185.984192 8.311768 9.067745 3.281933 -43.888077 283.154510
[eye_left_bone]
28 -24.626970 125.451866 -64.772606 0.000000 -90.000000 -99.840431 143.318359
29 -24.626970 125.451866 -64.772606 0.000000 -90.000000 -99.840431 143.318359
[eye_right_bone]
28 -24.626970 125.451866 64.327362 0.000000 -89.965736 80.156380 143.117676
29 -24.626970 125.451866 64.327362 0.000000 -89.965736 80.156380 143.117676
[L_forearm]
28 322.776093 0.000000 -0.000119 0.000374 -0.002317 -108.313408 322.776093
29 322.776093 0.000000 -0.000119 0.000396 -0.002314 -109.419975 322.776093
[L_front_hand]
28 241.149185 -0.042021 -3.300071 -30.076220 -1.836578 -27.421785 241.171753
29 241.149185 -0.042021 -3.300071 -30.076220 -1.836578 -27.421785 241.171753
[L_weapon_bone]
28 156.183838 0.000000 0.000000 0.000014 0.000007 0.000001 156.183838
29 156.183838 0.000000 0.000000 0.000014 0.000007 0.000001 156.183838
[L_front_hand01_01]
28 86.095154 20.947098 -0.655860 -0.366594 -0.477154 75.385574 88.609184
29 86.095154 20.947098 -0.655860 -0.366594 -0.477154 75.385574 88.609184
[L_front_hand02_01]
28 86.935165 -11.437475 24.513514 154.399796 -59.883835 -61.369587 91.046425
29 86.935165 -11.437475 24.513514 154.399796 -59.883835 -61.369587 91.046425
[L_front_hand03_01]
28 86.637497 -14.123976 -20.424902 -153.913849 58.118122 -62.702866 90.126129
29 86.637497 -14.123976 -20.424902 -153.913849 58.118122 -62.702866 90.126129
[L_front_hand01_02]
28 71.020905 -0.000179 0.000030 0.000334 -0.002323 -106.379684 71.020905
29 71.020905 -0.000179 0.000030 0.000334 -0.002323 -106.379684 71.020905
[L_front_hand02_02]
28 71.020927 -0.000119 0.000060 0.000334 -0.002323 -106.379684 71.020927
29 71.020927 -0.000119 0.000060 0.000334 -0.002323 -106.379684 71.020927
[L_front_hand03_02]
28 71.020905 -0.000060 0.000060 0.000334 -0.002323 -106.379684 71.020905
29 71.020905 -0.000060 0.000060 0.000334 -0.002323 -106.379684 71.020905
[R_forearm]
28 322.776428 -0.000060 0.000030 0.203870 0.055864 -106.718826 322.776428
29 322.776428 -0.000060 0.000030 0.202103 0.065158 -108.062805 322.776428
[R_front_hand]
28 238.847015 -0.006795 2.210259 158.362015 -10.646729 -26.313385 238.857239
29 238.847015 -0.006795 2.210259 158.362015 -10.646729 -26.313385 238.857239
[R_weapon_bone]
28 155.664093 0.002503 -0.000030 0.003487 0.001180 -90.988930 155.664078
29 155.664093 0.002503 -0.000030 0.003487 0.001180 -90.988930 155.664078
[R_front_hand01_01]
28 87.624611 14.231146 22.918642 -154.633499 -59.950619 61.746044 91.683487
29 87.624611 14.231146 22.918642 -154.633499 -59.950619 61.746044 91.683487
[R_front_hand02_01]
28 89.356956 14.367283 -19.491137 154.602661 58.302849 63.744389 92.579636
29 89.356956 14.367283 -19.491137 154.602661 58.302849 63.744389 92.579636
[R_front_hand03_01]
28 87.286232 -22.307278 -0.143439 0.162155 -0.423168 -75.767921 90.091743
29 87.286232 -22.307278 -0.143439 0.162155 -0.423168 -75.767921 90.091743
[R_front_hand01_02]
28 71.020905 0.000060 0.000119 0.002323 -0.000334 106.381714 71.020905
29 71.020905 0.000060 0.000119 0.002323 -0.000334 106.381714 71.020905
[R_front_hand02_02]
28 71.020844 -0.000030 -0.000119 0.002323 -0.000334 106.381714 71.020836
29 71.020844 -0.000030 -0.000119 0.002323 -0.000334 106.381714 71.020836
[R_front_hand03_02]
28 71.020905 0.000000 0.000030 0.002323 -0.000334 106.381714 71.020905
29 71.020905 0.000000 0.000030 0.002323 -0.000334 106.381714 71.020905
[null_rope01_connect]
28 328.732483 0.000000 -0.000238 -150.529221 -61.984787 -127.960411 328.732483
29 328.732483 0.000000 -0.000238 -154.483337 -64.791328 -118.914345 328.732483
[Rope1_Seg01]
28 -0.000037 -0.000001 0.000153 55.436871 -7.357289 -124.254189 0.000157
29 -0.000038 -0.000000 0.000153 58.243614 4.049722 -123.944084 0.000157
[Rope1_Seg02]
28 139.999863 -0.000179 0.000000 -9.495522 6.879699 -0.053351 139.999863
29 139.999863 -0.000179 0.000000 -15.774628 5.311833 2.629533 139.999863
[Rope1_Seg03]
28 139.999924 0.000060 -0.000060 -13.401396 8.263594 -0.950872 139.999924
29 139.999924 0.000060 -0.000060 -17.027248 5.086312 3.675866 139.999924
[Rope1_Seg04]
28 139.999924 -0.000060 -0.000119 -18.123636 6.108503 4.555363 139.999924
29 139.999924 -0.000060 -0.000119 -17.407129 4.376441 6.019354 139.999924
[Rope1_Seg05]
28 139.999832 0.000119 -0.000060 -2.719791 -4.657635 7.385487 139.999832
29 139.999832 0.000119 -0.000060 -3.362978 -3.127588 6.164625 139.999832
[Rope1_Seg06]
28 139.999954 0.000119 -0.000060 -1.399571 -1.729131 3.332532 139.999954
29 139.999954 0.000119 -0.000060 -0.339546 -2.122756 2.659542 139.999954
[Rope1_Seg07]
28 139.999985 0.000060 0.000000 -0.889543 -0.897963 1.997017 139.999985
29 139.999985 0.000060 0.000000 -0.648750 -0.864586 1.633812 139.999985
[Rope1_Seg09]
28 121.602913 0.000119 -0.000089 -89.793175 -1.359789 0.847147 121.602913
29 121.602913 0.000119 -0.000089 -89.793175 -1.359789 0.847147 121.602913
[L_mid_hand01]
28 103.859421 1.038730 8.195221 130.544373 -67.584534 -38.866943 104.187431
29 103.859421 1.038730 8.195221 130.544373 -67.584534 -38.866943 104.187431
[L_mid_hand02]
28 105.572853 -4.139662 -10.864139 -168.923172 43.409309 -73.498886 106.211075
29 105.572853 -4.139662 -10.864139 -168.923172 43.409309 -73.498886 106.211075
[L_mid_hand03]
28 104.641464 17.579376 -3.913581 -6.012627 17.808174 74.893669 106.179977
29 104.641464 17.579376 -3.913581 -6.012627 17.808174 74.893669 106.179977
[null_rope02_connect]
28 328.732849 0.000179 -0.000119 -128.999435 66.066978 -19.923687 328.732849
29 328.732849 0.000179 -0.000119 -140.208740 68.099220 -35.150578 328.732849
[Rope2_Seg01]
28 0.000095 0.000593 0.000000 31.634514 2.675269 -44.758686 0.000600
29 0.000095 0.000610 0.000000 29.063330 12.397972 -43.142265 0.000618
[Rope2_Seg02]
28 139.999741 -0.000060 -0.000119 21.082790 -8.254566 -5.562254 139.999756
29 139.999741 -0.000060 -0.000119 40.010109 -11.936028 -7.636536 139.999756
[Rope2_Seg03]
28 140.000107 0.000030 0.000000 2.078862 -5.593716 1.271942 140.000107
29 140.000107 0.000030 0.000000 -0.194291 -9.196244 4.101596 140.000107
[Rope2_Seg04]
28 139.999802 0.000000 -0.000060 13.023355 -9.685338 -5.313505 139.999802
29 139.999802 0.000000 -0.000060 7.466491 -10.111862 -1.311642 139.999802
[Rope2_Seg05]
28 139.999985 -0.000060 0.000119 11.829457 -11.574808 -6.385547 139.999985
29 139.999985 -0.000060 0.000119 9.683517 -9.781843 -5.193686 139.999985
[Rope2_Seg06]
28 139.999893 -0.000030 -0.000119 3.313112 -5.870625 -1.500991 139.999893
29 139.999893 -0.000030 -0.000119 3.107993 -5.215585 -1.447450 139.999893
[Rope2_Seg07]
28 139.999893 0.000060 -0.000060 1.586690 -3.635028 -0.672227 139.999893
29 139.999893 0.000060 -0.000060 1.310513 -3.045002 -0.473524 139.999893
[Rope2_Seg09]
28 121.338966 0.000089 -0.000060 33.793236 -1.359788 -0.847141 121.338966
29 121.338966 0.000089 -0.000060 33.793236 -1.359788 -0.847141 121.338966
[R_mid_hand01]
28 104.680779 11.144459 -10.335981 -16.212063 45.237247 70.462852 105.778534
29 104.680779 11.144459 -10.335981 -16.212063 45.237247 70.462852 105.778534
[R_mid_hand02]
28 104.070427 2.443552 8.231699 49.067368 -67.749771 39.286453 104.424065
29 104.070427 2.443552 8.231699 49.067368 -67.749771 39.286453 104.424065
[R_mid_hand03]
28 106.028137 -11.221827 -5.996406 -177.101105 15.551026 -76.585571 106.788818
29 106.028137 -11.221827 -5.996406 -177.101105 15.551026 -76.585571 106.788818
[spine02]
28 129.756927 0.001550 0.000119 0.360765 -4.044735 -12.935002 129.756927
29 129.756927 0.001550 0.000119 0.360061 -4.044797 -12.915059 129.756927
[spine03]
28 78.613312 0.081776 -4.899061 1.896996 3.831039 16.488060 78.765854
29 78.613281 0.081787 -4.899063 1.896495 3.831288 16.473045 78.765823
[pelvis]
28 169.435242 0.051022 0.000000 -0.060504 -0.180212 14.112841 169.435257
29 169.435242 0.051022 0.000000 -0.060465 -0.180225 14.087930 169.435257
[null_rope03_connect]
28 -1.257226 -2.466202 137.391083 167.575912 -87.957222 -102.412903 137.418976
29 -1.257226 -2.466202 137.391083 156.329987 -89.380714 -94.430099 137.418976
[null_rope04_connect]
28 -1.259640 -2.480268 -137.844437 167.575912 -87.957222 -102.412903 137.872513
29 -1.259640 -2.480268 -137.844437 156.329987 -89.380714 -94.430099 137.872513
[Rope3_Seg01]
28 -0.000019 0.000587 -0.000005 -132.000000 14.595165 -81.582275 0.000588
29 -0.000019 0.000610 -0.000000 -133.816589 22.368858 -83.558411 0.000611
[Rope3_Seg02]
28 139.999924 -0.000119 0.000060 0.076921 -1.312869 -1.819430 139.999924
29 139.999924 -0.000119 0.000060 0.115471 -1.292162 -2.195801 139.999924
[Rope3_Seg03]
28 139.999924 -0.000119 0.000119 0.140387 -1.651732 -3.443438 139.999924
29 139.999924 -0.000119 0.000119 0.148620 -1.592417 -3.097087 139.999924
[Rope3_Seg04]
28 139.999924 0.000119 0.000000 0.034676 -1.724150 -3.179704 139.999924
29 139.999924 0.000119 0.000000 0.109071 -2.097705 -4.512719 139.999924
[Rope3_Seg05]
28 139.999924 -0.000238 0.000060 0.059404 0.701471 8.605873 139.999924
29 139.999924 -0.000238 0.000060 0.106369 1.244503 5.079068 139.999924
[Rope3_Seg06]
28 139.999893 -0.000119 -0.000060 0.002491 0.635563 6.394917 139.999893
29 139.999893 -0.000119 -0.000060 0.224789 1.925878 6.488677 139.999893
[Rope3_Seg07]
28 139.999771 0.000060 -0.000119 0.108050 0.240785 3.533677 139.999771
29 139.999771 0.000060 -0.000119 0.298490 0.780724 2.902255 139.999771
[Rope3_Seg08]
28 139.999985 -0.000060 0.000000 0.222398 0.155543 2.272185 139.999985
29 139.999985 -0.000060 0.000000 0.366097 0.510133 1.862981 139.999985
[Rope3_Seg09]
28 90.185997 -0.000179 -0.000060 89.793228 -1.359877 -0.847183 90.185997
29 90.185997 -0.000179 -0.000060 89.793228 -1.359877 -0.847183 90.185997
[R_rear_hand01]
28 103.366196 -6.073594 -10.757982 -177.714203 24.565960 -73.910950 104.101845
29 103.366196 -6.073594 -10.757982 -177.714203 24.565960 -73.910950 104.101845
[R_rear_hand02]
28 100.509819 12.039542 -7.992327 -12.874829 36.868488 72.167213 101.543350
29 100.509819 12.039542 -7.992327 -12.874829 36.868488 72.167213 101.543350
[R_rear_hand03]
28 101.539970 5.215704 5.435467 71.484581 -71.816628 21.513813 101.819031
29 101.539970 5.215704 5.435467 71.484581 -71.816628 21.513813 101.819031
[Rope4_Seg01]
28 0.000010 0.000038 -0.000114 45.016254 22.888432 -115.615845 0.000121
29 0.000010 0.000038 -0.000114 44.435081 28.582561 -115.939743 0.000121
[Rope4_Seg02]
28 139.999985 0.000060 0.000119 0.342589 1.611628 4.528476 139.999985
29 139.999985 0.000060 0.000119 0.239720 2.269138 4.518933 139.999985
[Rope4_Seg03]
28 139.999924 0.000000 -0.000238 0.168779 2.647413 7.436233 139.999924
29 139.999924 0.000000 -0.000238 0.004127 3.360754 6.665299 139.999924
[Rope4_Seg04]
28 139.999985 0.000000 0.000119 -3.097893 7.401244 27.522356 139.999985
29 139.999985 0.000000 0.000119 -2.487405 9.206561 21.858278 139.999985
[Rope4_Seg05]
28 139.999802 -0.000060 -0.000119 5.107387 1.398611 -17.591553 139.999802
29 139.999802 -0.000060 -0.000119 0.997736 1.638105 -1.606601 139.999802
[Rope4_Seg06]
28 139.999924 0.000000 0.000060 3.053210 -2.550798 -18.856356 139.999924
29 139.999924 0.000000 0.000060 6.512016 -6.080331 -23.377783 139.999924
[Rope4_Seg07]
28 139.999802 0.000000 0.000000 0.358894 -0.787183 -5.859213 139.999802
29 139.999802 0.000000 0.000000 0.691245 -1.982513 -6.067656 139.999802
[Rope4_Seg08]
28 139.999924 0.000000 0.000119 -1.455817 -0.438883 -3.128992 139.999924
29 139.999924 0.000000 0.000119 -1.324097 -1.074362 -3.196451 139.999924
[Rope4_Seg09]
28 90.185791 0.000060 0.000060 -135.617828 2.228885 0.850567 90.185791
29 90.185791 0.000060 0.000060 -135.617828 2.228885 0.850567 90.185791
[L_rear_hand01]
28 101.696655 -8.392275 -7.654577 -12.874829 -36.868488 107.832764 102.329041
29 101.696655 -8.392275 -7.654577 -12.874829 -36.868488 107.832764 102.329041
[L_rear_hand02]
28 102.726799 -1.568258 5.773216 71.484581 71.816628 158.486160 102.900848
29 102.726799 -1.568258 5.773216 71.484581 71.816628 158.486160 102.900848
[L_rear_hand03]
28 104.552910 9.721220 -10.420293 -177.714203 -24.565960 -106.089035 105.519653
29 104.552910 9.721220 -10.420293 -177.714203 -24.565960 -106.089035 105.519653
